<svg width="26" height="26" viewBox="0 0 26 26" fill="none" xmlns="http://www.w3.org/2000/svg">
<g clip-path="url(#clip0)">
<path fill-rule="evenodd" clip-rule="evenodd" d="M21.2904 9.29688L25.693 10.1787V15.3213L21.2904 16.2031L23.7834 19.9431L20.1448 23.5874L16.4105 21.0906L15.5301 25.5H10.3955L9.51501 21.0906L5.78078 23.5874L2.14213 19.9431L4.63511 16.2031L0.232544 15.3213V10.1787L4.63511 9.29688L2.14213 5.55685L5.78078 1.91255L9.51501 4.4094L10.3955 0H15.5301L16.4105 4.4094L20.1448 1.91255L23.7834 5.55685L21.2904 9.29688ZM19.625 14.6837L23.8684 13.8231V11.6981L19.625 10.8374L19.0521 9.45628L21.4815 5.81184L19.9644 4.29254L16.3257 6.72558L14.9466 6.15192L14.0873 1.90192H11.9656L11.1063 6.15192L9.72712 6.72558L6.08847 4.29254L4.5714 5.81184L7.00079 9.45628L6.42789 10.8374L2.18448 11.6981V13.8231L6.42789 14.6837L7.00079 16.065L4.5714 19.7094L6.08847 21.2287L9.72712 18.7956L11.1063 19.3694L11.9656 23.6194H14.0873L14.9466 19.3694L16.3257 18.7956L19.9644 21.2287L21.4815 19.7094L19.0521 16.065L19.625 14.6837ZM10.9412 9.71983C11.5395 9.31938 12.2431 9.10557 12.9628 9.10557C13.927 9.10837 14.8509 9.49326 15.5327 10.1761C16.2145 10.859 16.5987 11.7843 16.6015 12.75C16.6015 13.4708 16.3881 14.1754 15.9882 14.7747C15.5884 15.3741 15.0202 15.8412 14.3553 16.117C13.6904 16.3928 12.9587 16.465 12.2529 16.3244C11.547 16.1838 10.8986 15.8367 10.3898 15.327C9.88087 14.8173 9.53431 14.168 9.39391 13.461C9.25351 12.7541 9.32557 12.0213 9.60098 11.3553C9.87639 10.6894 10.3428 10.1203 10.9412 9.71983ZM11.9549 14.2606C12.2532 14.4603 12.604 14.5668 12.9628 14.5668C13.2014 14.5682 13.438 14.5222 13.6587 14.4314C13.8794 14.3406 14.08 14.2069 14.2487 14.0379C14.4174 13.8689 14.5509 13.6681 14.6416 13.447C14.7323 13.2259 14.7782 12.989 14.7768 12.75C14.7768 12.3907 14.6704 12.0393 14.471 11.7405C14.2717 11.4418 13.9885 11.2089 13.657 11.0714C13.3255 10.9339 12.9607 10.898 12.6088 10.9681C12.257 11.0382 11.9338 11.2112 11.6801 11.4653C11.4264 11.7194 11.2536 12.0431 11.1836 12.3955C11.1136 12.748 11.1495 13.1133 11.2868 13.4453C11.4241 13.7773 11.6566 14.061 11.9549 14.2606Z" fill="#424242"/>
</g>
<defs>
<clipPath id="clip0">
<rect x="0.232544" width="25.4605" height="25.5" fill="white"/>
</clipPath>
</defs>
</svg>
