<svg width="49" height="51" viewBox="0 0 49 51" fill="none" xmlns="http://www.w3.org/2000/svg">
<path d="M0 24.3372C0 10.8961 10.8961 0 24.3372 0C37.7783 0 48.6744 10.8961 48.6744 24.3372V26.6628C48.6744 40.1039 37.7783 51 24.3372 51C10.8961 51 0 40.1039 0 26.6628V24.3372Z" fill="white"/>
<path fill-rule="evenodd" clip-rule="evenodd" d="M21.9412 21.7198C22.5395 21.3194 23.2431 21.1056 23.9628 21.1056C24.927 21.1084 25.8509 21.4933 26.5327 22.1761C27.2145 22.859 27.5987 23.7843 27.6015 24.75C27.6015 25.4708 27.3881 26.1754 26.9882 26.7747C26.5884 27.3741 26.0202 27.8412 25.3553 28.117C24.6904 28.3928 23.9587 28.465 23.2529 28.3244C22.547 28.1838 21.8986 27.8367 21.3898 27.327C20.8809 26.8173 20.5343 26.168 20.3939 25.461C20.2535 24.7541 20.3256 24.0213 20.601 23.3553C20.8764 22.6894 21.3428 22.1203 21.9412 21.7198ZM22.9549 26.2606C23.2532 26.4603 23.604 26.5668 23.9628 26.5668C24.2014 26.5682 24.438 26.5222 24.6587 26.4314C24.8794 26.3406 25.08 26.2069 25.2487 26.0379C25.4174 25.8689 25.5509 25.6681 25.6416 25.447C25.7323 25.2259 25.7782 24.989 25.7768 24.75C25.7768 24.3907 25.6704 24.0393 25.471 23.7405C25.2717 23.4418 24.9885 23.2089 24.657 23.0714C24.3255 22.9339 23.9607 22.898 23.6088 22.9681C23.257 23.0382 22.9338 23.2112 22.6801 23.4653C22.4264 23.7194 22.2536 24.0431 22.1836 24.3955C22.1136 24.748 22.1495 25.1133 22.2868 25.4453C22.4241 25.7773 22.6566 26.061 22.9549 26.2606Z" fill="#424242"/>
<path fill-rule="evenodd" clip-rule="evenodd" d="M32.2904 21.2969L36.693 22.1787V27.3213L32.2904 28.2031L34.7834 31.9431L31.1448 35.5874L27.4105 33.0906L26.5301 37.5H21.3955L20.515 33.0906L16.7808 35.5874L13.1421 31.9431L15.6351 28.2031L11.2325 27.3213V22.1787L15.6351 21.2969L13.1421 17.5569L16.7808 13.9126L20.515 16.4094L21.3955 12H26.5301L27.4105 16.4094L31.1448 13.9126L34.7834 17.5569L32.2904 21.2969ZM30.625 26.6837L34.8684 25.8231V23.6981L30.625 22.8374L30.0521 21.4563L32.4815 17.8118L30.9644 16.2925L27.3257 18.7256L25.9466 18.1519L25.0873 13.9019H22.9656L22.1063 18.1519L20.7271 18.7256L17.0885 16.2925L15.5714 17.8118L18.0008 21.4563L17.4279 22.8374L13.1845 23.6981V25.8231L17.4279 26.6837L18.0008 28.065L15.5714 31.7094L17.0885 33.2287L20.7271 30.7956L22.1063 31.3694L22.9656 35.6194H25.0873L25.9466 31.3694L27.3257 30.7956L30.9644 33.2287L32.4815 31.7094L30.0521 28.065L30.625 26.6837Z" fill="#424242"/>
</svg>
